<svg width="27" height="27" viewBox="0 0 27 27" fill="none" xmlns="http://www.w3.org/2000/svg">
    <path
        d="M27 7.52486V19.4745C27 23.6308 23.6312 27 19.475 27H7.5256C3.36943 27 0 23.6308 0 19.4745V7.52486C0 3.36917 3.36943 0 7.5256 0H19.475C23.6312 0 27 3.36917 27 7.52486Z"
        fill="#252525"></path>
    <g clip-path="url(#clip0_268_734)">
        <path
            d="M12.8518 3.85718C12.9495 3.85718 13.048 3.85718 13.1466 3.85718C13.1802 3.87175 13.2131 3.88889 13.2476 3.90089C13.3958 3.95318 13.5575 3.98061 13.6897 4.05861C14.5949 4.59518 15.4933 5.14375 16.3951 5.68632C17.7374 6.49461 19.0762 7.30632 20.4235 8.10518C20.9439 8.41461 21.2125 8.85603 21.2125 9.46803C21.2125 12.1817 21.2167 14.8955 21.2125 17.6092C21.2125 18.1123 20.9868 18.5066 20.5801 18.7895C20.4673 18.8683 20.346 18.9335 20.229 19.0046C18.1399 20.2629 16.0508 21.522 13.9608 22.7795C13.7335 22.9166 13.5196 23.0889 13.2375 23.0975C13.235 23.0975 13.2324 23.1077 13.2291 23.1146C13.2434 23.124 13.2585 23.1326 13.2729 23.142H12.7887C12.8064 23.1309 12.8249 23.1197 12.8426 23.1095C12.6043 23.0949 12.4114 22.9835 12.2161 22.866C10.0192 21.5409 7.82233 20.214 5.62039 18.8966C5.09074 18.5803 4.82045 18.1329 4.82129 17.5072C4.82382 15.9652 4.82129 14.424 4.82129 12.882C4.82129 11.7223 4.82129 10.5626 4.82803 9.40203C4.8314 8.85432 5.07643 8.44032 5.53618 8.15832C5.64397 8.09232 5.75511 8.02975 5.8629 7.96461C7.99831 6.67889 10.1329 5.39318 12.2666 4.10575C12.4342 4.00461 12.6026 3.91375 12.803 3.90861C12.8198 3.90861 12.835 3.87518 12.851 3.85718H12.8518ZM14.7355 13.434C14.7355 13.434 14.7271 13.434 14.7229 13.434C14.7229 13.0235 14.722 12.6129 14.7229 12.2023C14.7229 11.988 14.733 11.7737 14.7287 11.5595C14.7245 11.3237 14.61 11.1497 14.4037 11.0486C14.008 10.8532 13.5693 11.1386 13.5701 11.5869C13.5701 11.994 13.5743 12.4012 13.5751 12.8083C13.5751 13.0089 13.4707 13.1263 13.2813 13.1417C13.0834 13.158 12.9403 13.0483 12.9318 12.8469C12.9192 12.5366 12.9226 12.2255 12.9209 11.9152C12.9192 11.622 12.9226 11.3297 12.9167 11.0366C12.9133 10.8703 12.8384 10.734 12.7062 10.6363C12.5091 10.4906 12.2927 10.4769 12.0797 10.5832C11.87 10.6877 11.769 10.8669 11.7732 11.112C11.7808 11.5655 11.7808 12.0189 11.7791 12.4723C11.7791 12.654 11.6317 12.7912 11.4515 12.7912C11.2696 12.7912 11.1299 12.6575 11.124 12.474C11.1181 12.2923 11.1231 12.1097 11.1088 11.928C11.092 11.7077 10.9615 11.5612 10.7695 11.4755C10.5615 11.382 10.3636 11.4215 10.1843 11.5552C10.0251 11.6743 9.96279 11.8449 9.96364 12.0412C9.96532 12.4235 9.97206 12.8057 9.96953 13.1872C9.96869 13.374 9.83733 13.4966 9.65376 13.4992C9.46683 13.5017 9.33632 13.3766 9.32789 13.1855C9.32621 13.146 9.32537 13.1066 9.32284 13.068C9.29758 12.7115 9.08455 12.5092 8.7351 12.5117C8.39828 12.5135 8.17767 12.738 8.17682 13.0817C8.17598 13.6492 8.17682 14.2175 8.17682 14.7849C8.17682 15.0532 8.37386 15.306 8.60963 15.3429C8.94477 15.396 9.20664 15.252 9.29169 14.9546C9.32116 14.85 9.32032 14.7369 9.33042 14.6272C9.34305 14.4797 9.43904 14.3752 9.58303 14.358C9.80028 14.3323 9.97542 14.4643 9.97206 14.6932C9.96448 15.3077 9.97121 15.9215 9.96869 16.536C9.96869 16.6732 9.99648 16.7975 10.0807 16.9055C10.2499 17.1215 10.4908 17.1969 10.7366 17.1112C10.9909 17.0229 11.1231 16.8292 11.1231 16.5386C11.1231 15.9532 11.1223 15.3669 11.1214 14.7815C11.1214 14.4995 11.1198 14.2175 11.124 13.9355C11.1265 13.7503 11.3471 13.5926 11.5206 13.6466C11.7008 13.7023 11.774 13.8017 11.7749 14.0023C11.7766 14.4343 11.769 14.8663 11.7791 15.2983C11.7858 15.5932 12.0401 15.8246 12.3373 15.8289C12.6464 15.8323 12.8965 15.612 12.9167 15.3103C12.9251 15.1826 12.9209 15.0532 12.9217 14.9246C12.9234 14.7137 12.915 14.5029 12.9285 14.2929C12.9403 14.1069 13.0901 13.9843 13.2619 13.9955C13.4472 14.0075 13.5693 14.1369 13.5701 14.3289C13.5709 14.6537 13.5684 14.9786 13.5684 15.3035C13.5684 15.6069 13.7663 15.8383 14.0576 15.8769C14.3751 15.9189 14.6344 15.7552 14.7094 15.4552C14.7304 15.3703 14.7321 15.2786 14.733 15.1895C14.7346 14.604 14.7338 14.0186 14.7338 13.4323L14.7355 13.434ZM16.5156 14.1052C16.5156 13.7375 16.5164 13.3706 16.5156 13.0029C16.5139 12.6592 16.1998 12.3986 15.8672 12.462C15.5379 12.5246 15.367 12.7423 15.367 13.1092C15.367 13.7477 15.3687 14.3863 15.3754 15.024C15.3763 15.1397 15.3914 15.2597 15.4234 15.3703C15.4958 15.618 15.7687 15.7706 16.0348 15.7277C16.3177 15.6815 16.5156 15.4637 16.5164 15.1963C16.5164 14.8329 16.5164 14.4686 16.5164 14.1052H16.5156ZM17.1892 14.3717C17.1892 14.4077 17.1867 14.4429 17.1892 14.4789C17.2001 14.6126 17.1858 14.7557 17.2296 14.8775C17.3205 15.1277 17.5984 15.2486 17.8856 15.1929C18.1373 15.144 18.3167 14.934 18.3251 14.6666C18.331 14.4883 18.3285 14.31 18.3251 14.1317C18.3201 13.8532 18.1559 13.65 17.8931 13.5703C17.569 13.4726 17.1387 13.7606 17.1867 14.1155C17.1985 14.1995 17.1883 14.286 17.1883 14.3717H17.1892Z"
            fill="#A4A4A4"></path>
    </g>
    <defs>
        <clipPath id="clip0_268_734">
            <rect width="16.3929" height="19.2857" fill="white"
                transform="translate(4.82129 3.85718)"></rect>
        </clipPath>
    </defs>
</svg>