<svg width="26" height="27" viewBox="0 0 26 27" fill="none" xmlns="http://www.w3.org/2000/svg">
    <path
        d="M26 7.52486V19.4745C26 23.6308 22.756 27 18.7537 27H7.24688C3.24463 27 0 23.6308 0 19.4745V7.52486C0 3.36917 3.24463 0 7.24688 0H18.7537C22.756 0 26 3.36917 26 7.52486Z"
        fill="#252525"></path>
    <path
        d="M17.6426 4.82153H15.1102C13.9907 4.82153 12.9171 5.2787 12.1257 6.09248C11.3341 6.90626 10.8894 8.00997 10.8894 9.16082V11.7644H8.35693V15.2358H10.8894V22.1787H14.266V15.2358H16.7985L17.6426 11.7644H14.266V9.16082C14.266 8.93065 14.355 8.70991 14.5133 8.54715C14.6716 8.3844 14.8863 8.29296 15.1102 8.29296H17.6426V4.82153Z"
        fill="#A4A4A4"></path>
</svg>