<svg width="27" height="27" viewBox="0 0 27 27" fill="none" xmlns="http://www.w3.org/2000/svg">
    <path
        d="M27 7.56144V19.439C27 23.6146 23.6145 27 19.439 27H6.59216C2.95118 27 0 24.0484 0 20.4078V7.56144C0 3.38535 3.38554 0 7.56096 0H19.439C23.6145 0 27 3.38535 27 7.56144Z"
        fill="#252525"></path>
    <path
        d="M7.81976 6.03442C8.8121 6.03442 9.61628 6.84029 9.61628 7.83117C9.61628 8.82416 8.8121 9.62939 7.81976 9.62939C6.82447 9.62939 6.02197 8.82416 6.02197 7.83117C6.02197 6.84029 6.82447 6.03442 7.81976 6.03442ZM6.26796 10.9926H9.3703V20.9653H6.26796V10.9926Z"
        fill="#A4A4A4"></path>
    <path
        d="M11.3159 10.9927H14.2875V12.3555H14.3293C14.7427 11.5713 15.7546 10.7446 17.2626 10.7446C20.3984 10.7446 20.978 12.8092 20.978 15.4955V20.9654H17.8822V16.1166C17.8822 14.9594 17.8595 13.4713 16.2707 13.4713C14.6577 13.4713 14.4117 14.7313 14.4117 16.0321V20.9654H11.3159V10.9927Z"
        fill="#A4A4A4"></path>
</svg>