<svg width="27" height="27" viewBox="0 0 27 27" fill="none" xmlns="http://www.w3.org/2000/svg">
    <path
        d="M27 7.61799V19.3824C27 23.5892 23.5892 27 19.3825 27H7.61793C3.41077 27 0 23.5892 0 19.3824V7.61799C0 3.41058 3.41077 0 7.61793 0H19.3825C23.5892 0 27 3.41058 27 7.61799Z"
        fill="#252525"></path>
    <path
        d="M11.8638 15.9547V11.0455L16.1151 13.5003L11.8638 15.9547ZM21.3407 9.56115C21.1523 8.85704 20.5979 8.30263 19.894 8.11425C18.6178 7.77197 13.5005 7.77197 13.5005 7.77197C13.5005 7.77197 8.38258 7.77197 7.10641 8.11425C6.4023 8.30263 5.8481 8.85704 5.65973 9.56115C5.31787 10.8371 5.31787 13.5003 5.31787 13.5003C5.31787 13.5003 5.31787 16.163 5.65973 17.439C5.8481 18.1431 6.4023 18.698 7.10641 18.8859C8.38258 19.2282 13.5005 19.2282 13.5005 19.2282C13.5005 19.2282 18.6178 19.2282 19.894 18.8859C20.5979 18.698 21.1523 18.1431 21.3407 17.439C21.683 16.163 21.683 13.5003 21.683 13.5003C21.683 13.5003 21.683 10.8371 21.3407 9.56115Z"
        fill="#A4A4A4"></path>
</svg>