<svg width="27" height="27" viewBox="0 0 27 27" fill="none" xmlns="http://www.w3.org/2000/svg">
    <path
        d="M27 7.61799V19.3824C27 23.5892 23.5892 27 19.3825 27H7.61814C3.41077 27 0 23.5892 0 19.3824V7.61799C0 3.41058 3.41077 0 7.61814 0H19.3825C23.5892 0 27 3.41058 27 7.61799Z"
        fill="#252525"></path>
    <path
        d="M13.2306 14.6132L12.6326 13.7382L7.98775 6.94248H9.95667L13.744 12.4334L14.3442 13.3038L19.003 20.0575H16.9519L13.2306 14.6132ZM14.9819 12.5535L14.3825 11.6843L10.456 5.99154H6.18576L11.9937 14.4884L12.5923 15.3642L16.4502 21.0085H20.8142L14.9819 12.5535Z"
        fill="#A4A4A4"></path>
    <path
        d="M12.6326 13.7382L13.2306 14.6132L12.5923 15.3642L7.79349 21.0085H6.43931L11.9937 14.4884L12.6326 13.7382Z"
        fill="#A4A4A4"></path>
    <path
        d="M20.5611 5.99154L14.9819 12.5535L14.3442 13.3038L13.744 12.4334L14.3825 11.6843L19.2317 5.99154H20.5611Z"
        fill="#A4A4A4"></path>
</svg>