<svg width="27" height="27" viewBox="0 0 27 27" fill="none" xmlns="http://www.w3.org/2000/svg">
    <path
        d="M27 7.52486V19.4745C27 23.6308 23.6312 27 19.475 27H7.5256C3.36943 27 0 23.6308 0 19.4745V7.52486C0 3.36917 3.36943 0 7.5256 0H19.475C23.6312 0 27 3.36917 27 7.52486Z"
        fill="#252525"></path>
    <path
        d="M13.5968 16.4208C11.9094 16.475 10.5247 15.0908 10.5796 13.4029C10.6296 11.8721 11.8717 10.6294 13.403 10.5793C15.0911 10.5245 16.4753 11.9093 16.4204 13.5972C16.3708 15.128 15.1281 16.3707 13.5968 16.4208ZM13.5661 8.77585C10.9088 8.73906 8.73926 10.9088 8.77585 13.5661C8.81033 16.114 10.8853 18.1893 13.4337 18.2242C16.0916 18.2608 18.2612 16.0913 18.2246 13.434C18.1897 10.8857 16.1141 8.81075 13.5661 8.77585Z"
        fill="#A4A4A4"></path>
    <path
        d="M20.7973 17.3629C20.7973 19.2598 19.2596 20.7975 17.3627 20.7975H9.63696C7.74032 20.7975 6.20257 19.2598 6.20257 17.3629V9.63688C6.20257 7.74005 7.74032 6.20296 9.63696 6.20296H17.3627C19.2596 6.20296 20.7973 7.74069 20.7973 9.6373V17.3629ZM17.3633 4.3999H9.63696C6.745 4.3999 4.3999 6.74497 4.3999 9.6373V17.3629C4.3999 20.2548 6.74458 22.5999 9.63696 22.5999H17.3627C20.2553 22.5999 22.6004 20.2548 22.6004 17.3629V9.63688C22.6004 6.74497 20.2553 4.3999 17.3633 4.3999Z"
        fill="#A4A4A4"></path>
    <path
        d="M18.3702 7.41131C17.6253 7.36337 17.008 7.98065 17.0553 8.72555C17.0946 9.34198 17.5925 9.83921 18.2083 9.87916C18.9536 9.92688 19.5711 9.3096 19.5232 8.56408C19.4839 7.94848 18.986 7.45062 18.3702 7.41131Z"
        fill="white"></path>
</svg>