<svg width="27" height="27" viewBox="0 0 27 27" fill="none" xmlns="http://www.w3.org/2000/svg">
    <path
        d="M27 7.56114V19.4389C27 23.615 23.6146 27 19.439 27H6.592C2.95099 27 0 24.049 0 20.4083V7.56114C0 3.38562 3.38535 0 7.56081 0H19.439C23.6146 0 27 3.38562 27 7.56114Z"
        fill="#252525"></path>
    <path
        d="M4.84253 13.4391L17.8558 7.95334C18.484 7.68864 19.1589 8.2151 19.0551 8.88894L17.4725 19.14C17.3472 19.9534 16.4177 20.3586 15.7363 19.8979L11.0731 16.7461C10.7067 16.4984 10.6625 15.9758 10.981 15.6696L15.4065 11.4262C15.5221 11.3158 15.5152 11.1289 15.3924 11.0274C15.3009 10.9515 15.1706 10.9443 15.0722 11.0112L9.20973 14.9548C8.68012 15.3112 8.01764 15.4068 7.40898 15.2157L4.889 14.4235C4.42288 14.2772 4.39219 13.6292 4.84253 13.4391Z"
        fill="#A4A4A4"></path>
</svg>